<svg viewBox="0 0 200 200" xmlns="http://www.w3.org/2000/svg">
  <!-- Gradient definition -->
  <defs>
    <radialGradient id="backgroundGradient" cx="0.3" cy="0.3" r="0.8">
      <stop offset="0%" style="stop-color:#FDF4C4;stop-opacity:1" />
      <stop offset="100%" style="stop-color:#E8D085;stop-opacity:1" />
    </radialGradient>
  </defs>
  
  <!-- Background circle with gradient -->
  <circle cx="100" cy="100" r="100" fill="url(#backgroundGradient)" stroke="none"/>
  
  <!-- Furniture elements -->
  <g stroke="#8B7355" stroke-width="2.5" fill="none" stroke-linecap="round" stroke-linejoin="round">
    
    <!-- Chair -->
    <g transform="translate(60, 65)">
      <!-- Chair back -->
      <rect x="0" y="0" width="25" height="35" rx="2"/>
      <!-- Chair seat -->
      <rect x="0" y="30" width="30" height="20" rx="2"/>
      <!-- Chair legs -->
      <line x1="2" y1="50" x2="2" y2="65"/>
      <line x1="28" y1="50" x2="28" y2="65"/>
      <line x1="2" y1="65" x2="28" y2="65"/>
    </g>
    
    <!-- Table -->
    <g transform="translate(110, 90)">
      <!-- Table top -->
      <rect x="0" y="0" width="35" height="25" rx="2"/>
      <!-- Table legs -->
      <line x1="3" y1="25" x2="3" y2="40"/>
      <line x1="32" y1="25" x2="32" y2="40"/>
      <line x1="3" y1="40" x2="32" y2="40"/>
    </g>
    
    <!-- Sofa/Couch -->
    <g transform="translate(65, 130)">
      <!-- Sofa back -->
      <path d="M 0 0 L 0 15 L 50 15 L 50 0"/>
      <!-- Sofa seat -->
      <rect x="0" y="12" width="50" height="18" rx="2"/>
      <!-- Sofa arms -->
      <rect x="-5" y="5" width="8" height="25" rx="2"/>
      <rect x="47" y="5" width="8" height="25" rx="2"/>
    </g>
    
  </g>
</svg>